<mxfile host="Electron" modified="2024-02-26T15:33:58.418Z" agent="Mozilla/5.0 (X11; Linux x86_64) AppleWebKit/537.36 (KHTML, like Gecko) draw.io/23.1.5 Chrome/120.0.6099.109 Electron/28.1.0 Safari/537.36" etag="DYTn42F78AxnSGkkvI7h" version="23.1.5" type="device">
  <diagram name="Page-1" id="929967ad-93f9-6ef4-fab6-5d389245f69c">
    <mxGraphModel dx="3000.5" dy="1972" grid="1" gridSize="10" guides="1" tooltips="1" connect="1" arrows="1" fold="1" page="1" pageScale="1.5" pageWidth="1169" pageHeight="826" background="none" math="1" shadow="0">
      <root>
        <mxCell id="0" style=";html=1;" />
        <mxCell id="1" style=";html=1;" parent="0" />
        <mxCell id="0AuDwcJIDdCjQ-R97GEU-4" value="&lt;p style=&quot;margin:0px;margin-top:4px;margin-left:7px;text-align:left;&quot;&gt;&lt;b&gt;Observer&lt;/b&gt;&lt;/p&gt;" style="html=1;shape=mxgraph.sysml.package;overflow=fill;labelX=110;strokeWidth=2;align=center;" vertex="1" parent="1">
          <mxGeometry x="-650" y="290" width="390" height="380" as="geometry" />
        </mxCell>
        <mxCell id="0AuDwcJIDdCjQ-R97GEU-57" value="" style="rounded=0;whiteSpace=wrap;html=1;strokeColor=none;" vertex="1" parent="1">
          <mxGeometry x="-666" y="334" width="28" height="10" as="geometry" />
        </mxCell>
        <mxCell id="0AuDwcJIDdCjQ-R97GEU-1" value="&lt;p style=&quot;margin:0px;margin-top:4px;margin-left:7px;text-align:left;&quot;&gt;&lt;b&gt;Logger&lt;/b&gt;&lt;/p&gt;" style="html=1;shape=mxgraph.sysml.package;overflow=fill;labelX=110;strokeWidth=2;align=center;fillColor=#f5f5f5;fontColor=#333333;strokeColor=#666666;" vertex="1" parent="1">
          <mxGeometry x="-438" y="140" width="177" height="110" as="geometry" />
        </mxCell>
        <mxCell id="0AuDwcJIDdCjQ-R97GEU-2" value="&lt;p style=&quot;margin:0px;margin-top:4px;margin-left:7px;text-align:left;&quot;&gt;&lt;b&gt;Guidance&lt;/b&gt;&lt;/p&gt;" style="html=1;shape=mxgraph.sysml.package;overflow=fill;labelX=110;strokeWidth=2;align=center;" vertex="1" parent="1">
          <mxGeometry x="-190" y="150" width="410.5" height="160" as="geometry" />
        </mxCell>
        <mxCell id="0AuDwcJIDdCjQ-R97GEU-3" value="&lt;p style=&quot;margin:0px;margin-top:4px;margin-left:7px;text-align:left;&quot;&gt;&lt;b&gt;Regulator&lt;/b&gt;&lt;/p&gt;" style="html=1;shape=mxgraph.sysml.package;overflow=fill;labelX=110;strokeWidth=2;align=center;" vertex="1" parent="1">
          <mxGeometry x="-190" y="340" width="410.5" height="330" as="geometry" />
        </mxCell>
        <mxCell id="0AuDwcJIDdCjQ-R97GEU-5" value="&lt;p style=&quot;margin:0px;margin-top:4px;margin-left:7px;text-align:left;&quot;&gt;&lt;b&gt;Robot&lt;/b&gt;&lt;/p&gt;" style="html=1;shape=mxgraph.sysml.package;overflow=fill;labelX=110;strokeWidth=2;align=center;" vertex="1" parent="1">
          <mxGeometry x="-680" y="690" width="940" height="240" as="geometry" />
        </mxCell>
        <mxCell id="0AuDwcJIDdCjQ-R97GEU-6" value="&lt;p style=&quot;margin:0px;margin-top:4px;margin-left:7px;text-align:left;&quot;&gt;&lt;b&gt;Actuator driver&lt;/b&gt;&lt;/p&gt;" style="html=1;shape=mxgraph.sysml.package;overflow=fill;labelX=110;strokeWidth=2;align=center;" vertex="1" parent="1">
          <mxGeometry x="-30.75" y="708" width="160" height="50" as="geometry" />
        </mxCell>
        <mxCell id="0AuDwcJIDdCjQ-R97GEU-7" value="&lt;p style=&quot;margin:0px;margin-top:4px;margin-left:7px;text-align:left;&quot;&gt;&lt;b&gt;Actuators&lt;/b&gt;&lt;/p&gt;" style="html=1;shape=mxgraph.sysml.package;overflow=fill;labelX=110;strokeWidth=2;align=center;" vertex="1" parent="1">
          <mxGeometry x="-189.5" y="778" width="409.5" height="122" as="geometry" />
        </mxCell>
        <mxCell id="0AuDwcJIDdCjQ-R97GEU-9" value="&lt;p style=&quot;margin:0px;margin-top:4px;margin-left:7px;text-align:left;&quot;&gt;&lt;b&gt;sensors&lt;/b&gt;&lt;/p&gt;" style="html=1;shape=mxgraph.sysml.package;overflow=fill;labelX=110;strokeWidth=2;align=center;" vertex="1" parent="1">
          <mxGeometry x="-660" y="800" width="400" height="100" as="geometry" />
        </mxCell>
        <mxCell id="0AuDwcJIDdCjQ-R97GEU-10" value="&lt;p style=&quot;margin:0px;margin-top:4px;margin-left:7px;text-align:left;&quot;&gt;&lt;b&gt;sensor driver&lt;/b&gt;&lt;/p&gt;" style="html=1;shape=mxgraph.sysml.package;overflow=fill;labelX=110;strokeWidth=2;align=center;" vertex="1" parent="1">
          <mxGeometry x="-429" y="708" width="130" height="50" as="geometry" />
        </mxCell>
        <mxCell id="0AuDwcJIDdCjQ-R97GEU-12" value="ros2 bags&lt;br&gt;&lt;i&gt;.mcap -- .db3&lt;/i&gt;" style="rounded=1;whiteSpace=wrap;html=1;" vertex="1" parent="1">
          <mxGeometry x="-420" y="170" width="130" height="60" as="geometry" />
        </mxCell>
        <mxCell id="0AuDwcJIDdCjQ-R97GEU-53" style="edgeStyle=orthogonalEdgeStyle;rounded=0;orthogonalLoop=1;jettySize=auto;html=1;exitX=0.5;exitY=0;exitDx=0;exitDy=0;entryX=0.182;entryY=0.987;entryDx=0;entryDy=0;entryPerimeter=0;" edge="1" parent="1" source="0AuDwcJIDdCjQ-R97GEU-13" target="0AuDwcJIDdCjQ-R97GEU-25">
          <mxGeometry relative="1" as="geometry" />
        </mxCell>
        <mxCell id="0AuDwcJIDdCjQ-R97GEU-13" value="Projection Lambert93" style="rounded=1;whiteSpace=wrap;html=1;" vertex="1" parent="1">
          <mxGeometry x="-540" y="485" width="120" height="60" as="geometry" />
        </mxCell>
        <mxCell id="0AuDwcJIDdCjQ-R97GEU-16" style="edgeStyle=orthogonalEdgeStyle;rounded=0;orthogonalLoop=1;jettySize=auto;html=1;exitX=0.5;exitY=1;exitDx=0;exitDy=0;entryX=0.5;entryY=0;entryDx=0;entryDy=0;" edge="1" parent="1" source="0AuDwcJIDdCjQ-R97GEU-14" target="0AuDwcJIDdCjQ-R97GEU-15">
          <mxGeometry relative="1" as="geometry" />
        </mxCell>
        <mxCell id="0AuDwcJIDdCjQ-R97GEU-14" value="$$&lt;br&gt;\left\{\begin{align}&lt;br&gt;F_z^d &amp;amp;= &amp;amp;F_{z,statique} &amp;amp;+ K_z \times (z_d-z) \\&lt;br&gt;\Gamma_{\Phi}^d &amp;amp;= &amp;amp;\Gamma_{\Phi,statique} &amp;amp;+K_{\Phi} \times (\Phi_d-\phi) \\&lt;br&gt;\Gamma_{\Theta}^d &amp;amp;= &amp;amp;\Gamma_{\Theta,statique} &amp;amp;+K_{\Theta} \times (\Theta_d-\Theta) \\&lt;br&gt;\end{align}\right.&lt;br&gt;$$" style="rounded=1;whiteSpace=wrap;html=1;" vertex="1" parent="1">
          <mxGeometry x="-114.75" y="370" width="260" height="80" as="geometry" />
        </mxCell>
        <mxCell id="0AuDwcJIDdCjQ-R97GEU-19" value="" style="edgeStyle=orthogonalEdgeStyle;rounded=0;orthogonalLoop=1;jettySize=auto;html=1;exitX=0.75;exitY=1;exitDx=0;exitDy=0;entryX=0.703;entryY=0.018;entryDx=0;entryDy=0;entryPerimeter=0;" edge="1" parent="1" source="0AuDwcJIDdCjQ-R97GEU-15" target="0AuDwcJIDdCjQ-R97GEU-17">
          <mxGeometry relative="1" as="geometry" />
        </mxCell>
        <mxCell id="0AuDwcJIDdCjQ-R97GEU-15" value="$$&lt;br&gt;\pmatrix{F_z\\\Gamma_{\Phi}\\\Gamma_{\Theta}}&lt;br&gt;=&lt;br&gt;\mathbf{M}_{ActionÂ°} \pmatrix{F_{front,left}\\F_{front,right}\\F_{rear}}&lt;br&gt;$$" style="rounded=1;whiteSpace=wrap;html=1;" vertex="1" parent="1">
          <mxGeometry x="-89.25" y="470" width="210" height="90" as="geometry" />
        </mxCell>
        <mxCell id="0AuDwcJIDdCjQ-R97GEU-17" value="$$ \mathbf{\delta_{front,left} , \ \ \delta_{front,right} ,&amp;nbsp; &amp;nbsp;\ \ \delta_{rear}} $$" style="rounded=1;whiteSpace=wrap;html=1;fontStyle=1" vertex="1" parent="1">
          <mxGeometry x="-111.75" y="599" width="255" height="55" as="geometry" />
        </mxCell>
        <mxCell id="0AuDwcJIDdCjQ-R97GEU-20" value="&lt;font style=&quot;font-size: 10px;&quot;&gt;Abacus&lt;br&gt;&lt;div style=&quot;&quot;&gt;&lt;span style=&quot;background-color: initial;&quot;&gt;Hydrodynamic Model&lt;/span&gt;&lt;/div&gt;&lt;/font&gt;" style="text;html=1;align=right;verticalAlign=middle;whiteSpace=wrap;rounded=0;" vertex="1" parent="1">
          <mxGeometry x="-54.25" y="562" width="119.25" height="30" as="geometry" />
        </mxCell>
        <mxCell id="0AuDwcJIDdCjQ-R97GEU-21" value="$$&lt;br&gt;\left\{\begin{align}&lt;br&gt;z_d &amp;amp;= &amp;amp;z_{max} &amp;amp;\mathcal{tanh}\left(K_z u\right) \\&lt;br&gt;\Theta_d &amp;amp;= &amp;amp;\Theta_{max} &amp;amp;\mathcal{tanh}\left(K_{\Theta} \left(z_d-z\right)\right)\\&lt;br&gt;\Phi_d &amp;amp;=&amp;amp; &amp;amp; \mathcal{atan}\left(\frac{r\mathbf{u}&lt;br&gt;}{g}\right)&lt;br&gt;\end{align}\right.&lt;br&gt;$$" style="rounded=1;whiteSpace=wrap;html=1;" vertex="1" parent="1">
          <mxGeometry x="-114" y="190" width="258.25" height="100" as="geometry" />
        </mxCell>
        <mxCell id="0AuDwcJIDdCjQ-R97GEU-23" value="Control of heigh, pitch and yaw&amp;nbsp;&lt;div&gt;&lt;br/&gt;&lt;/div&gt;" style="text;html=1;align=center;verticalAlign=middle;whiteSpace=wrap;rounded=0;" vertex="1" parent="1">
          <mxGeometry x="-120" y="180" width="270" height="10" as="geometry" />
        </mxCell>
        <mxCell id="0AuDwcJIDdCjQ-R97GEU-24" value="&lt;p style=&quot;margin:0px;margin-top:4px;margin-left:7px;text-align:left;&quot;&gt;&lt;b&gt;Planner&lt;/b&gt;&lt;/p&gt;" style="html=1;shape=mxgraph.sysml.package;overflow=fill;labelX=110;strokeWidth=2;align=center;" vertex="1" parent="1">
          <mxGeometry x="-189.5" y="-90" width="410.5" height="210" as="geometry" />
        </mxCell>
        <mxCell id="0AuDwcJIDdCjQ-R97GEU-25" value="Fusion of data&lt;br&gt;Pose + speed" style="rounded=1;whiteSpace=wrap;html=1;" vertex="1" parent="1">
          <mxGeometry x="-525.5" y="399" width="245" height="60" as="geometry" />
        </mxCell>
        <mxCell id="0AuDwcJIDdCjQ-R97GEU-26" value="Dual GNSS&lt;br&gt;RTK" style="rounded=1;whiteSpace=wrap;html=1;" vertex="1" parent="1">
          <mxGeometry x="-575" y="828" width="68" height="60" as="geometry" />
        </mxCell>
        <mxCell id="0AuDwcJIDdCjQ-R97GEU-27" value="IMU&lt;br&gt;&lt;i&gt;Gyrometer&lt;/i&gt;" style="rounded=1;whiteSpace=wrap;html=1;" vertex="1" parent="1">
          <mxGeometry x="-496" y="828" width="63" height="60" as="geometry" />
        </mxCell>
        <mxCell id="0AuDwcJIDdCjQ-R97GEU-28" value="Ultrasound sensor&lt;br&gt;&lt;i&gt;Heigh Measurement&lt;/i&gt;" style="rounded=1;whiteSpace=wrap;html=1;" vertex="1" parent="1">
          <mxGeometry x="-424" y="828" width="120" height="60" as="geometry" />
        </mxCell>
        <mxCell id="0AuDwcJIDdCjQ-R97GEU-31" value="LIDAR" style="rounded=1;whiteSpace=wrap;html=1;" vertex="1" parent="1">
          <mxGeometry x="-650" y="828" width="65" height="60" as="geometry" />
        </mxCell>
        <mxCell id="0AuDwcJIDdCjQ-R97GEU-33" value="Obstacle localisation" style="rounded=1;whiteSpace=wrap;html=1;dashed=1;" vertex="1" parent="1">
          <mxGeometry x="-523" y="300" width="90" height="60" as="geometry" />
        </mxCell>
        <mxCell id="0AuDwcJIDdCjQ-R97GEU-47" style="edgeStyle=orthogonalEdgeStyle;rounded=0;orthogonalLoop=1;jettySize=auto;html=1;exitX=0.5;exitY=0;exitDx=0;exitDy=0;exitPerimeter=0;entryX=0.5;entryY=1;entryDx=0;entryDy=0;" edge="1" parent="1" source="0AuDwcJIDdCjQ-R97GEU-42" target="0AuDwcJIDdCjQ-R97GEU-13">
          <mxGeometry relative="1" as="geometry" />
        </mxCell>
        <mxCell id="0AuDwcJIDdCjQ-R97GEU-42" value="&lt;p style=&quot;margin:0px;margin-top:4px;margin-left:7px;text-align:left;&quot;&gt;&lt;b&gt;SBG embedded Observer&lt;/b&gt;&lt;/p&gt;" style="html=1;shape=mxgraph.sysml.package;overflow=fill;labelX=162.5;strokeWidth=2;align=center;" vertex="1" parent="1">
          <mxGeometry x="-575" y="571.75" width="190" height="50" as="geometry" />
        </mxCell>
        <mxCell id="0AuDwcJIDdCjQ-R97GEU-43" value="Latitude, Longitude, Attitude and Speed estimation" style="text;html=1;align=center;verticalAlign=middle;whiteSpace=wrap;rounded=0;" vertex="1" parent="1">
          <mxGeometry x="-563" y="592" width="170" height="30" as="geometry" />
        </mxCell>
        <mxCell id="0AuDwcJIDdCjQ-R97GEU-59" value="" style="rounded=0;whiteSpace=wrap;html=1;strokeColor=none;" vertex="1" parent="1">
          <mxGeometry x="-690" y="838" width="32" height="10" as="geometry" />
        </mxCell>
        <mxCell id="0AuDwcJIDdCjQ-R97GEU-55" style="edgeStyle=orthogonalEdgeStyle;rounded=0;orthogonalLoop=1;jettySize=auto;html=1;exitX=0;exitY=0.25;exitDx=0;exitDy=0;entryX=-0.039;entryY=0.65;entryDx=0;entryDy=0;entryPerimeter=0;" edge="1" parent="1" source="0AuDwcJIDdCjQ-R97GEU-31" target="0AuDwcJIDdCjQ-R97GEU-33">
          <mxGeometry relative="1" as="geometry">
            <Array as="points">
              <mxPoint x="-700" y="843" />
              <mxPoint x="-700" y="339" />
            </Array>
          </mxGeometry>
        </mxCell>
        <mxCell id="0AuDwcJIDdCjQ-R97GEU-61" value="" style="rounded=0;whiteSpace=wrap;html=1;strokeColor=none;" vertex="1" parent="1">
          <mxGeometry x="-536" y="796" width="10" height="10" as="geometry" />
        </mxCell>
        <mxCell id="0AuDwcJIDdCjQ-R97GEU-52" style="edgeStyle=orthogonalEdgeStyle;rounded=0;orthogonalLoop=1;jettySize=auto;html=1;exitX=0.646;exitY=-0.024;exitDx=0;exitDy=0;entryX=0.5;entryY=1;entryDx=0;entryDy=0;exitPerimeter=0;" edge="1" parent="1" source="0AuDwcJIDdCjQ-R97GEU-26" target="0AuDwcJIDdCjQ-R97GEU-43">
          <mxGeometry relative="1" as="geometry" />
        </mxCell>
        <mxCell id="0AuDwcJIDdCjQ-R97GEU-62" value="" style="rounded=0;whiteSpace=wrap;html=1;strokeColor=none;" vertex="1" parent="1">
          <mxGeometry x="-486" y="795" width="10" height="10" as="geometry" />
        </mxCell>
        <mxCell id="0AuDwcJIDdCjQ-R97GEU-63" value="" style="rounded=0;whiteSpace=wrap;html=1;strokeColor=none;" vertex="1" parent="1">
          <mxGeometry x="-369" y="795" width="10" height="10" as="geometry" />
        </mxCell>
        <mxCell id="0AuDwcJIDdCjQ-R97GEU-54" style="edgeStyle=orthogonalEdgeStyle;rounded=0;orthogonalLoop=1;jettySize=auto;html=1;entryX=0.5;entryY=1;entryDx=0;entryDy=0;entryPerimeter=0;exitX=0.5;exitY=0;exitDx=0;exitDy=0;" edge="1" parent="1" source="0AuDwcJIDdCjQ-R97GEU-28" target="0AuDwcJIDdCjQ-R97GEU-10">
          <mxGeometry relative="1" as="geometry">
            <mxPoint x="-300" y="830" as="sourcePoint" />
          </mxGeometry>
        </mxCell>
        <mxCell id="0AuDwcJIDdCjQ-R97GEU-64" value="" style="rounded=0;whiteSpace=wrap;html=1;strokeColor=none;" vertex="1" parent="1">
          <mxGeometry x="-369" y="686" width="10" height="10" as="geometry" />
        </mxCell>
        <mxCell id="0AuDwcJIDdCjQ-R97GEU-65" value="" style="rounded=0;whiteSpace=wrap;html=1;strokeColor=none;" vertex="1" parent="1">
          <mxGeometry x="-485" y="686" width="10" height="10" as="geometry" />
        </mxCell>
        <mxCell id="0AuDwcJIDdCjQ-R97GEU-67" value="" style="rounded=0;whiteSpace=wrap;html=1;strokeColor=none;" vertex="1" parent="1">
          <mxGeometry x="-368" y="664" width="10" height="10" as="geometry" />
        </mxCell>
        <mxCell id="0AuDwcJIDdCjQ-R97GEU-35" style="edgeStyle=orthogonalEdgeStyle;rounded=0;orthogonalLoop=1;jettySize=auto;html=1;entryX=0.665;entryY=1.039;entryDx=0;entryDy=0;entryPerimeter=0;" edge="1" parent="1" target="0AuDwcJIDdCjQ-R97GEU-25">
          <mxGeometry relative="1" as="geometry">
            <mxPoint x="-363" y="710" as="sourcePoint" />
            <mxPoint x="-300" y="510" as="targetPoint" />
          </mxGeometry>
        </mxCell>
        <mxCell id="0AuDwcJIDdCjQ-R97GEU-68" value="" style="rounded=0;whiteSpace=wrap;html=1;strokeColor=none;" vertex="1" parent="1">
          <mxGeometry x="-485" y="666" width="10" height="10" as="geometry" />
        </mxCell>
        <mxCell id="0AuDwcJIDdCjQ-R97GEU-50" style="edgeStyle=orthogonalEdgeStyle;rounded=0;orthogonalLoop=1;jettySize=auto;html=1;exitX=0.25;exitY=0;exitDx=0;exitDy=0;entryX=0.5;entryY=1;entryDx=0;entryDy=0;" edge="1" parent="1" source="0AuDwcJIDdCjQ-R97GEU-27" target="0AuDwcJIDdCjQ-R97GEU-43">
          <mxGeometry relative="1" as="geometry" />
        </mxCell>
        <mxCell id="0AuDwcJIDdCjQ-R97GEU-69" value="" style="rounded=0;whiteSpace=wrap;html=1;strokeColor=none;" vertex="1" parent="1">
          <mxGeometry x="-265" y="418" width="10" height="10" as="geometry" />
        </mxCell>
        <mxCell id="0AuDwcJIDdCjQ-R97GEU-70" value="" style="rounded=0;whiteSpace=wrap;html=1;strokeColor=none;" vertex="1" parent="1">
          <mxGeometry x="-196" y="419" width="10" height="10" as="geometry" />
        </mxCell>
        <mxCell id="0AuDwcJIDdCjQ-R97GEU-71" value="" style="rounded=0;whiteSpace=wrap;html=1;strokeColor=none;" vertex="1" parent="1">
          <mxGeometry x="-195" y="238" width="10" height="10" as="geometry" />
        </mxCell>
        <mxCell id="0AuDwcJIDdCjQ-R97GEU-72" value="" style="rounded=0;whiteSpace=wrap;html=1;strokeColor=none;" vertex="1" parent="1">
          <mxGeometry x="-185" y="237" width="10" height="10" as="geometry" />
        </mxCell>
        <mxCell id="0AuDwcJIDdCjQ-R97GEU-74" value="" style="rounded=0;whiteSpace=wrap;html=1;strokeColor=none;" vertex="1" parent="1">
          <mxGeometry x="10.75" y="306" width="10" height="10" as="geometry" />
        </mxCell>
        <mxCell id="0AuDwcJIDdCjQ-R97GEU-75" value="" style="rounded=0;whiteSpace=wrap;html=1;strokeColor=none;" vertex="1" parent="1">
          <mxGeometry x="10.75" y="333" width="10" height="10" as="geometry" />
        </mxCell>
        <mxCell id="0AuDwcJIDdCjQ-R97GEU-56" style="edgeStyle=orthogonalEdgeStyle;rounded=0;orthogonalLoop=1;jettySize=auto;html=1;exitX=0.5;exitY=1;exitDx=0;exitDy=0;entryX=0.5;entryY=0;entryDx=0;entryDy=0;" edge="1" parent="1" source="0AuDwcJIDdCjQ-R97GEU-21" target="0AuDwcJIDdCjQ-R97GEU-14">
          <mxGeometry relative="1" as="geometry" />
        </mxCell>
        <mxCell id="0AuDwcJIDdCjQ-R97GEU-77" value="servomotor&lt;br&gt;&lt;i&gt;Front-right wing&lt;/i&gt;" style="rounded=1;whiteSpace=wrap;html=1;" vertex="1" parent="1">
          <mxGeometry x="-56.5" y="808" width="90.25" height="39" as="geometry" />
        </mxCell>
        <mxCell id="0AuDwcJIDdCjQ-R97GEU-79" value="servomotor&lt;br&gt;&lt;i&gt;rudder&lt;/i&gt;" style="rounded=1;whiteSpace=wrap;html=1;" vertex="1" parent="1">
          <mxGeometry x="43" y="808" width="72.25" height="39" as="geometry" />
        </mxCell>
        <mxCell id="0AuDwcJIDdCjQ-R97GEU-83" value="Propeller" style="rounded=1;whiteSpace=wrap;html=1;" vertex="1" parent="1">
          <mxGeometry x="123" y="808" width="72.25" height="39" as="geometry" />
        </mxCell>
        <mxCell id="0AuDwcJIDdCjQ-R97GEU-84" value="servomotor&lt;br style=&quot;border-color: var(--border-color);&quot;&gt;&lt;i style=&quot;border-color: var(--border-color);&quot;&gt;rear wing&lt;/i&gt;" style="rounded=1;whiteSpace=wrap;html=1;" vertex="1" parent="1">
          <mxGeometry x="-157" y="808" width="90.25" height="39" as="geometry" />
        </mxCell>
        <mxCell id="0AuDwcJIDdCjQ-R97GEU-85" value="servomotor&lt;br style=&quot;border-color: var(--border-color);&quot;&gt;&lt;i style=&quot;border-color: var(--border-color);&quot;&gt;Front-left wing&lt;/i&gt;" style="rounded=1;whiteSpace=wrap;html=1;" vertex="1" parent="1">
          <mxGeometry x="-107" y="854" width="90.25" height="39" as="geometry" />
        </mxCell>
        <mxCell id="0AuDwcJIDdCjQ-R97GEU-93" value="" style="rounded=0;whiteSpace=wrap;html=1;strokeColor=none;" vertex="1" parent="1">
          <mxGeometry x="44" y="664" width="10" height="10" as="geometry" />
        </mxCell>
        <mxCell id="0AuDwcJIDdCjQ-R97GEU-95" value="" style="rounded=0;whiteSpace=wrap;html=1;strokeColor=none;" vertex="1" parent="1">
          <mxGeometry x="44" y="686" width="10" height="10" as="geometry" />
        </mxCell>
        <mxCell id="0AuDwcJIDdCjQ-R97GEU-92" style="edgeStyle=orthogonalEdgeStyle;rounded=0;orthogonalLoop=1;jettySize=auto;html=1;exitX=0.631;exitY=0.983;exitDx=0;exitDy=0;entryX=0.5;entryY=0;entryDx=0;entryDy=0;entryPerimeter=0;exitPerimeter=0;" edge="1" parent="1" source="0AuDwcJIDdCjQ-R97GEU-17" target="0AuDwcJIDdCjQ-R97GEU-6">
          <mxGeometry relative="1" as="geometry" />
        </mxCell>
        <mxCell id="0AuDwcJIDdCjQ-R97GEU-97" value="" style="rounded=0;whiteSpace=wrap;html=1;strokeColor=none;" vertex="1" parent="1">
          <mxGeometry x="-265" y="325" width="10" height="10" as="geometry" />
        </mxCell>
        <mxCell id="0AuDwcJIDdCjQ-R97GEU-96" style="edgeStyle=orthogonalEdgeStyle;rounded=0;orthogonalLoop=1;jettySize=auto;html=1;exitX=1;exitY=0.5;exitDx=0;exitDy=0;entryX=0;entryY=0.5;entryDx=0;entryDy=0;entryPerimeter=0;dashed=1;" edge="1" parent="1" source="0AuDwcJIDdCjQ-R97GEU-33" target="0AuDwcJIDdCjQ-R97GEU-24">
          <mxGeometry relative="1" as="geometry">
            <Array as="points">
              <mxPoint x="-220" y="330" />
              <mxPoint x="-220" y="15" />
            </Array>
          </mxGeometry>
        </mxCell>
        <mxCell id="0AuDwcJIDdCjQ-R97GEU-98" value="" style="endArrow=classic;html=1;rounded=0;entryX=0;entryY=0.5;entryDx=0;entryDy=0;" edge="1" parent="1">
          <mxGeometry width="50" height="50" relative="1" as="geometry">
            <mxPoint x="-200" y="423" as="sourcePoint" />
            <mxPoint x="-114" y="243" as="targetPoint" />
            <Array as="points">
              <mxPoint x="-200" y="243" />
            </Array>
          </mxGeometry>
        </mxCell>
        <mxCell id="0AuDwcJIDdCjQ-R97GEU-102" style="edgeStyle=orthogonalEdgeStyle;rounded=0;orthogonalLoop=1;jettySize=auto;html=1;exitX=1;exitY=0.25;exitDx=0;exitDy=0;entryX=0.011;entryY=0.352;entryDx=0;entryDy=0;entryPerimeter=0;" edge="1" parent="1">
          <mxGeometry relative="1" as="geometry">
            <mxPoint x="-280.49999999999955" y="423" as="sourcePoint" />
            <mxPoint x="-111.88999999999987" y="423.1600000000003" as="targetPoint" />
          </mxGeometry>
        </mxCell>
        <mxCell id="0AuDwcJIDdCjQ-R97GEU-104" style="edgeStyle=orthogonalEdgeStyle;rounded=0;orthogonalLoop=1;jettySize=auto;html=1;exitX=0.25;exitY=0;exitDx=0;exitDy=0;entryX=0.662;entryY=0.975;entryDx=0;entryDy=0;entryPerimeter=0;" edge="1" parent="1" source="0AuDwcJIDdCjQ-R97GEU-25" target="0AuDwcJIDdCjQ-R97GEU-33">
          <mxGeometry relative="1" as="geometry" />
        </mxCell>
        <mxCell id="0AuDwcJIDdCjQ-R97GEU-109" value="" style="shape=singleArrow;direction=north;whiteSpace=wrap;html=1;arrowWidth=0.4019867549668561;arrowSize=0.05027814569536531;fillColor=#f5f5f5;fontColor=#333333;strokeColor=#666666;" vertex="1" parent="1">
          <mxGeometry x="-380" y="250" width="10" height="150" as="geometry" />
        </mxCell>
        <mxCell id="0AuDwcJIDdCjQ-R97GEU-110" value="" style="shape=singleArrow;direction=north;whiteSpace=wrap;html=1;arrowWidth=0.3247422680413024;arrowSize=0.19004930524429306;rotation=-90;fillColor=#f5f5f5;fontColor=#333333;strokeColor=#666666;" vertex="1" parent="1">
          <mxGeometry x="-256" y="181.5" width="10" height="21" as="geometry" />
        </mxCell>
        <mxCell id="0AuDwcJIDdCjQ-R97GEU-114" value="" style="shape=singleArrow;direction=north;whiteSpace=wrap;html=1;arrowWidth=0.30000000000003413;arrowSize=0;fillColor=#f5f5f5;fontColor=#333333;strokeColor=#666666;" vertex="1" parent="1">
          <mxGeometry x="-248" y="190" width="10" height="540" as="geometry" />
        </mxCell>
        <mxCell id="0AuDwcJIDdCjQ-R97GEU-115" value="" style="shape=singleArrow;direction=north;whiteSpace=wrap;html=1;arrowWidth=0.2548179871520233;arrowSize=0;rotation=-90;fillColor=#f5f5f5;fontColor=#333333;strokeColor=#666666;" vertex="1" parent="1">
          <mxGeometry x="-182.25" y="574.75" width="10" height="130.5" as="geometry" />
        </mxCell>
        <mxCell id="0AuDwcJIDdCjQ-R97GEU-116" value="" style="shape=singleArrow;direction=north;whiteSpace=wrap;html=1;arrowWidth=0.46551724137927974;arrowSize=0;fillColor=#f5f5f5;fontColor=#333333;strokeColor=#666666;" vertex="1" parent="1">
          <mxGeometry x="-203" y="640" width="5" height="90" as="geometry" />
        </mxCell>
        <mxCell id="0AuDwcJIDdCjQ-R97GEU-117" value="" style="shape=singleArrow;direction=north;whiteSpace=wrap;html=1;arrowWidth=0.46551724137927974;arrowSize=0;rotation=-90;fillColor=#f5f5f5;fontColor=#333333;strokeColor=#666666;" vertex="1" parent="1">
          <mxGeometry x="-118.5" y="643.5" width="5" height="171" as="geometry" />
        </mxCell>
        <mxCell id="0AuDwcJIDdCjQ-R97GEU-118" value="" style="rounded=0;whiteSpace=wrap;html=1;strokeColor=none;rotation=-90;fillColor=#f5f5f5;fontColor=#333333;" vertex="1" parent="1">
          <mxGeometry x="-246" y="190" width="1" height="5.5" as="geometry" />
        </mxCell>
        <mxCell id="0AuDwcJIDdCjQ-R97GEU-119" value="" style="rounded=0;whiteSpace=wrap;html=1;strokeColor=none;" vertex="1" parent="1">
          <mxGeometry x="-250" y="183" width="8" height="1" as="geometry" />
        </mxCell>
        <mxCell id="0AuDwcJIDdCjQ-R97GEU-121" value="" style="rounded=0;whiteSpace=wrap;html=1;strokeColor=none;" vertex="1" parent="1">
          <mxGeometry x="-250" y="183" width="8" height="1" as="geometry" />
        </mxCell>
        <mxCell id="0AuDwcJIDdCjQ-R97GEU-122" value="" style="rounded=0;whiteSpace=wrap;html=1;strokeColor=none;fillColor=#f5f5f5;fontColor=#333333;" vertex="1" parent="1">
          <mxGeometry x="-243" y="639" width="8" height="1" as="geometry" />
        </mxCell>
        <mxCell id="0AuDwcJIDdCjQ-R97GEU-123" value="" style="rounded=0;whiteSpace=wrap;html=1;strokeColor=none;fillColor=#f5f5f5;fontColor=#333333;" vertex="1" parent="1">
          <mxGeometry x="-243" y="639.5" width="8" height="1" as="geometry" />
        </mxCell>
        <mxCell id="0AuDwcJIDdCjQ-R97GEU-124" value="" style="rounded=0;whiteSpace=wrap;html=1;strokeColor=none;rotation=-90;" vertex="1" parent="1">
          <mxGeometry x="-251" y="638.5" width="16" height="1" as="geometry" />
        </mxCell>
        <mxCell id="0AuDwcJIDdCjQ-R97GEU-125" value="" style="rounded=0;whiteSpace=wrap;html=1;strokeColor=none;fillColor=#f5f5f5;fontColor=#333333;" vertex="1" parent="1">
          <mxGeometry x="-204.5" y="640" width="8" height="1" as="geometry" />
        </mxCell>
        <mxCell id="0AuDwcJIDdCjQ-R97GEU-126" value="" style="rounded=0;whiteSpace=wrap;html=1;strokeColor=none;fillColor=#f5f5f5;fontColor=#333333;" vertex="1" parent="1">
          <mxGeometry x="-204.5" y="639.5" width="8" height="1" as="geometry" />
        </mxCell>
        <mxCell id="0AuDwcJIDdCjQ-R97GEU-127" value="" style="rounded=0;whiteSpace=wrap;html=1;strokeColor=none;rotation=-90;fillColor=#f5f5f5;fontColor=#333333;" vertex="1" parent="1">
          <mxGeometry x="-204.5" y="724.5" width="8" height="1" as="geometry" />
        </mxCell>
        <mxCell id="0AuDwcJIDdCjQ-R97GEU-128" value="" style="rounded=0;whiteSpace=wrap;html=1;strokeColor=none;rotation=-180;" vertex="1" parent="1">
          <mxGeometry x="-203" y="730.5" width="8" height="1.5" as="geometry" />
        </mxCell>
        <mxCell id="0AuDwcJIDdCjQ-R97GEU-131" value="" style="rounded=0;whiteSpace=wrap;html=1;strokeColor=none;rotation=-90;fillColor=#f5f5f5;fontColor=#333333;" vertex="1" parent="1">
          <mxGeometry x="-246" y="189" width="1" height="5.5" as="geometry" />
        </mxCell>
        <mxCell id="0AuDwcJIDdCjQ-R97GEU-132" value="" style="rounded=0;whiteSpace=wrap;html=1;strokeColor=none;rotation=-90;" vertex="1" parent="1">
          <mxGeometry x="-246.43" y="193.2" width="12.75" height="1.37" as="geometry" />
        </mxCell>
        <mxCell id="0AuDwcJIDdCjQ-R97GEU-134" style="edgeStyle=orthogonalEdgeStyle;rounded=0;orthogonalLoop=1;jettySize=auto;html=1;exitX=0.5;exitY=1;exitDx=0;exitDy=0;exitPerimeter=0;entryX=0.585;entryY=0.002;entryDx=0;entryDy=0;entryPerimeter=0;" edge="1" parent="1" source="0AuDwcJIDdCjQ-R97GEU-6" target="0AuDwcJIDdCjQ-R97GEU-7">
          <mxGeometry relative="1" as="geometry" />
        </mxCell>
        <mxCell id="0AuDwcJIDdCjQ-R97GEU-136" value="" style="shape=singleArrow;direction=north;whiteSpace=wrap;html=1;arrowWidth=0.2769230769230944;arrowSize=0;rotation=-90;fillColor=#f5f5f5;fontColor=#333333;strokeColor=#666666;" vertex="1" parent="1">
          <mxGeometry x="-275.17" y="700.7" width="10" height="56.59" as="geometry" />
        </mxCell>
        <mxCell id="0AuDwcJIDdCjQ-R97GEU-138" value="" style="rounded=0;whiteSpace=wrap;html=1;strokeColor=none;rotation=-90;" vertex="1" parent="1">
          <mxGeometry x="-245" y="194.13" width="12.75" height="1.37" as="geometry" />
        </mxCell>
        <mxCell id="0AuDwcJIDdCjQ-R97GEU-139" value="" style="shape=singleArrow;direction=north;whiteSpace=wrap;html=1;arrowWidth=0.2769230769230944;arrowSize=0;rotation=-90;fillColor=#f5f5f5;fontColor=#333333;strokeColor=#666666;" vertex="1" parent="1">
          <mxGeometry x="-318.7" y="519.7" width="10" height="144" as="geometry" />
        </mxCell>
      </root>
    </mxGraphModel>
  </diagram>
</mxfile>
